<svg width="16" height="16" viewBox="0 0 16 16" fill="none" xmlns="http://www.w3.org/2000/svg">
<path d="M13.7319 7.33622C13.7053 7.21733 13.6501 7.10671 13.5712 7.01393C13.4922 6.92115 13.3919 6.849 13.2788 6.80372L10.08 5.52434L10.7419 1.11122C10.7662 0.952747 10.7391 0.790661 10.6645 0.648734C10.5899 0.506807 10.4718 0.392509 10.3276 0.322605C10.1833 0.252702 10.0204 0.230872 9.8628 0.260317C9.70521 0.289763 9.5612 0.368934 9.45189 0.486218L2.45189 7.98622C2.36868 8.07533 2.30845 8.18338 2.27642 8.30101C2.24438 8.41864 2.2415 8.54231 2.26804 8.66131C2.29457 8.7803 2.34971 8.89103 2.42868 8.98391C2.50766 9.07679 2.60809 9.14902 2.72127 9.19434L5.92002 10.4737L5.25814 14.8887C5.23384 15.0472 5.26097 15.2093 5.33554 15.3512C5.4101 15.4931 5.52819 15.6074 5.67247 15.6773C5.81675 15.7472 5.97963 15.7691 6.13723 15.7396C6.29482 15.7102 6.43883 15.631 6.54814 15.5137L13.5481 8.01372C13.6317 7.92435 13.6921 7.81588 13.7242 7.69779C13.7562 7.5797 13.7589 7.45557 13.7319 7.33622ZM7.10002 12.7218L7.49189 10.1112C7.51693 9.94413 7.48482 9.77348 7.40077 9.62692C7.31671 9.48036 7.18563 9.36648 7.02877 9.30372L4.29627 8.21059L8.90002 3.27809L8.50814 5.88872C8.4831 6.05581 8.51521 6.22645 8.59926 6.37301C8.68332 6.51957 8.8144 6.63346 8.97127 6.69622L11.7038 7.78934L7.10002 12.7218Z" fill="white"/>
</svg>
