<svg width="24" height="24" viewBox="0 0 24 24" fill="none" xmlns="http://www.w3.org/2000/svg">
<path d="M22.125 5.99998C22.125 5.38123 21.9549 4.77439 21.6334 4.24577C21.3118 3.71716 20.8511 3.28712 20.3016 3.00267C19.7521 2.71821 19.135 2.59029 18.5177 2.63288C17.9004 2.67548 17.3067 2.88694 16.8015 3.24417C16.2963 3.6014 15.899 4.09064 15.6531 4.65841C15.4071 5.22619 15.322 5.85065 15.407 6.46353C15.492 7.07641 15.7439 7.65413 16.135 8.13355C16.5262 8.61296 17.0416 8.97561 17.625 9.18186V10.5C17.625 10.5994 17.5855 10.6948 17.5152 10.7651C17.4448 10.8355 17.3495 10.875 17.25 10.875H9.00001C8.87452 10.875 8.74919 10.8841 8.62501 10.9022V9.18186C9.37562 8.91648 10.0083 8.39428 10.4111 7.70757C10.8139 7.02086 10.961 6.21384 10.8264 5.42916C10.6918 4.64448 10.2841 3.93265 9.67537 3.41949C9.06667 2.90633 8.29616 2.62488 7.50001 2.62488C6.70386 2.62488 5.93334 2.90633 5.32464 3.41949C4.71594 3.93265 4.30824 4.64448 4.17361 5.42916C4.03898 6.21384 4.18608 7.02086 4.58892 7.70757C4.99176 8.39428 5.62439 8.91648 6.37501 9.18186V14.8181C5.62439 15.0835 4.99176 15.6057 4.58892 16.2924C4.18608 16.9791 4.03898 17.7861 4.17361 18.5708C4.30824 19.3555 4.71594 20.0673 5.32464 20.5805C5.93334 21.0936 6.70386 21.3751 7.50001 21.3751C8.29616 21.3751 9.06667 21.0936 9.67537 20.5805C10.2841 20.0673 10.6918 19.3555 10.8264 18.5708C10.961 17.7861 10.8139 16.9791 10.4111 16.2924C10.0083 15.6057 9.37562 15.0835 8.62501 14.8181V13.5C8.62501 13.4005 8.66452 13.3051 8.73484 13.2348C8.80517 13.1645 8.90055 13.125 9.00001 13.125H17.25C17.9462 13.125 18.6139 12.8484 19.1062 12.3561C19.5984 11.8639 19.875 11.1962 19.875 10.5V9.18186C20.5325 8.9484 21.1016 8.51728 21.5045 7.94763C21.9073 7.37798 22.124 6.69767 22.125 5.99998ZM7.50001 4.87498C7.72251 4.87498 7.94002 4.94096 8.12502 5.06458C8.31003 5.1882 8.45422 5.3639 8.53937 5.56947C8.62452 5.77503 8.6468 6.00123 8.60339 6.21946C8.55998 6.43769 8.45284 6.63815 8.2955 6.79548C8.13817 6.95281 7.93771 7.05996 7.71948 7.10337C7.50126 7.14678 7.27505 7.1245 7.06949 7.03935C6.86392 6.9542 6.68822 6.81001 6.5646 6.625C6.44099 6.44 6.37501 6.22249 6.37501 5.99998C6.37501 5.70162 6.49353 5.41547 6.70451 5.20449C6.91549 4.99351 7.20164 4.87498 7.50001 4.87498ZM7.50001 19.125C7.2775 19.125 7.06 19.059 6.87499 18.9354C6.68999 18.8118 6.54579 18.6361 6.46064 18.4305C6.37549 18.2249 6.35322 17.9987 6.39662 17.7805C6.44003 17.5623 6.54718 17.3618 6.70451 17.2045C6.86185 17.0472 7.0623 16.94 7.28053 16.8966C7.49876 16.8532 7.72496 16.8755 7.93053 16.9606C8.13609 17.0458 8.31179 17.19 8.43541 17.375C8.55903 17.56 8.62501 17.7775 8.62501 18C8.62501 18.2984 8.50648 18.5845 8.2955 18.7955C8.08452 19.0065 7.79838 19.125 7.50001 19.125ZM18.75 7.12498C18.5275 7.12498 18.31 7.059 18.125 6.93539C17.94 6.81177 17.7958 6.63607 17.7106 6.4305C17.6255 6.22494 17.6032 5.99874 17.6466 5.78051C17.69 5.56228 17.7972 5.36182 17.9545 5.20449C18.1118 5.04716 18.3123 4.94001 18.5305 4.8966C18.7488 4.85319 18.975 4.87547 19.1805 4.96062C19.3861 5.04577 19.5618 5.18996 19.6854 5.37497C19.809 5.55997 19.875 5.77748 19.875 5.99998C19.875 6.29835 19.7565 6.5845 19.5455 6.79548C19.3345 7.00646 19.0484 7.12498 18.75 7.12498Z" fill="#545863"/>
</svg>
