<svg width="24" height="24" viewBox="0 0 24 24" fill="none" xmlns="http://www.w3.org/2000/svg">
<path d="M19.6725 4.44747C18.8754 3.63391 17.9241 2.98739 16.8743 2.54569C15.8245 2.10399 14.6971 1.87598 13.5581 1.87497H13.5253C12.3908 1.87193 11.2671 2.09411 10.2191 2.52862C9.17111 2.96313 8.21981 3.60133 7.42032 4.40622L1.66501 10.2347C1.3165 10.587 1.12165 11.063 1.12305 11.5585C1.12446 12.0541 1.32201 12.529 1.67251 12.8793L4.35939 15.5625C4.53323 15.7372 4.73997 15.8757 4.96767 15.97C5.19537 16.0643 5.4395 16.1125 5.68595 16.1118H5.69626C5.94445 16.1115 6.19007 16.0616 6.41869 15.965C6.64731 15.8684 6.8543 15.7271 7.02751 15.5493L12.7341 9.70028C12.9436 9.49502 13.2246 9.37912 13.5179 9.37702C13.8112 9.37492 14.0938 9.48679 14.3063 9.68903C14.4105 9.79095 14.4933 9.91274 14.5496 10.0472C14.606 10.1817 14.6348 10.3261 14.6344 10.4718C14.6376 10.7907 14.5142 11.0979 14.2913 11.3259L8.45532 16.9687C8.27687 17.1419 8.13464 17.3488 8.03692 17.5774C7.9392 17.8061 7.88792 18.0519 7.88609 18.3005C7.88426 18.5492 7.9319 18.7957 8.02625 19.0258C8.12059 19.2558 8.25976 19.4648 8.43564 19.6406L11.1225 22.3275C11.4728 22.6752 11.9457 22.8715 12.4394 22.8739C12.933 22.8764 13.4078 22.6848 13.7616 22.3406L19.5516 16.6743L19.56 16.6659C22.9359 13.2918 22.9856 7.81028 19.6725 4.44747ZM5.68314 13.7072L3.52688 11.5509L5.2322 9.82497L7.3772 11.97L5.68314 13.7072ZM12.4519 20.474L10.2956 18.3178L12.0403 16.6303L14.1853 18.7743L12.4519 20.474ZM17.9728 15.0722L15.795 17.2031L13.6594 15.0684L15.8634 12.9375L15.8775 12.9243C16.2003 12.5992 16.4555 12.2133 16.6283 11.789C16.8011 11.3647 16.8881 10.9103 16.8844 10.4522C16.883 10.0072 16.7922 9.56707 16.6175 9.15785C16.4428 8.74864 16.1876 8.3787 15.8672 8.06997C15.228 7.46087 14.3766 7.12486 13.4937 7.13326C12.6108 7.14166 11.7659 7.49381 11.1384 8.11497L11.1291 8.12528L8.94939 10.3584L6.81376 8.22372L9.01689 5.99247C9.60752 5.39849 10.3101 4.92758 11.084 4.60702C11.8579 4.28646 12.6877 4.12261 13.5253 4.12497H13.5497C14.3916 4.12602 15.2249 4.29477 16.0009 4.62136C16.7769 4.94795 17.4801 5.42585 18.0694 6.02716C20.5172 8.51059 20.4731 12.5672 17.9728 15.0722Z" fill="#545863"/>
</svg>
