<svg width="24" height="24" viewBox="0 0 24 24" fill="none" xmlns="http://www.w3.org/2000/svg">
<path d="M14.625 10.5C14.625 10.7984 14.5065 11.0845 14.2955 11.2955C14.0845 11.5065 13.7984 11.625 13.5 11.625H7.49999C7.20163 11.625 6.91548 11.5065 6.7045 11.2955C6.49352 11.0845 6.37499 10.7984 6.37499 10.5C6.37499 10.2016 6.49352 9.91548 6.7045 9.7045C6.91548 9.49352 7.20163 9.37499 7.49999 9.37499H13.5C13.7984 9.37499 14.0845 9.49352 14.2955 9.7045C14.5065 9.91548 14.625 10.2016 14.625 10.5ZM21.7959 21.7959C21.6914 21.9008 21.5672 21.984 21.4305 22.0408C21.2937 22.0976 21.1471 22.1268 20.9991 22.1268C20.851 22.1268 20.7044 22.0976 20.5676 22.0408C20.4309 21.984 20.3067 21.9008 20.2022 21.7959L15.75 17.3437C14.0104 18.6787 11.8282 19.3019 9.64606 19.087C7.46389 18.8722 5.44515 17.8353 3.99936 16.1867C2.55356 14.5382 1.78898 12.4014 1.8607 10.2098C1.93243 8.01829 2.83509 5.93607 4.38558 4.38558C5.93607 2.83509 8.01829 1.93243 10.2098 1.8607C12.4014 1.78898 14.5382 2.55356 16.1867 3.99936C17.8353 5.44515 18.8722 7.46389 19.087 9.64606C19.3019 11.8282 18.6787 14.0104 17.3437 15.75L21.8006 20.2059C22.0107 20.4175 22.1282 20.7038 22.1273 21.0019C22.1264 21.3 22.0072 21.5856 21.7959 21.7959ZM10.5 16.875C11.7608 16.875 12.9934 16.5011 14.0418 15.8006C15.0901 15.1001 15.9072 14.1045 16.3897 12.9396C16.8722 11.7747 16.9985 10.4929 16.7525 9.25629C16.5065 8.01966 15.8994 6.88375 15.0078 5.99219C14.1162 5.10063 12.9803 4.49347 11.7437 4.24749C10.5071 4.00151 9.22527 4.12775 8.06039 4.61026C6.89551 5.09277 5.89987 5.90987 5.19938 6.95823C4.49888 8.0066 4.12499 9.23914 4.12499 10.5C4.12698 12.1901 4.79927 13.8105 5.99438 15.0056C7.18949 16.2007 8.80985 16.873 10.5 16.875Z" fill="#545863"/>
</svg>
