<svg width="22" height="22" viewBox="0 0 22 22" fill="none" xmlns="http://www.w3.org/2000/svg">
<path d="M3.4375 4.46875C2.86796 4.46875 2.40625 4.93046 2.40625 5.5C2.40625 6.06954 2.86796 6.53125 3.4375 6.53125H4.8125C5.38204 6.53125 5.84375 6.06954 5.84375 5.5C5.84375 4.93046 5.38204 4.46875 4.8125 4.46875H3.4375Z" fill="#868A94"/>
<path d="M8.25 4.46875C7.68046 4.46875 7.21875 4.93046 7.21875 5.5C7.21875 6.06954 7.68046 6.53125 8.25 6.53125H18.5625C19.132 6.53125 19.5938 6.06954 19.5938 5.5C19.5938 4.93046 19.132 4.46875 18.5625 4.46875H8.25Z" fill="#868A94"/>
<path d="M8.25 9.96875C7.68046 9.96875 7.21875 10.4305 7.21875 11C7.21875 11.5695 7.68046 12.0312 8.25 12.0312H18.5625C19.132 12.0312 19.5938 11.5695 19.5938 11C19.5938 10.4305 19.132 9.96875 18.5625 9.96875H8.25Z" fill="#868A94"/>
<path d="M7.21875 16.5C7.21875 15.9305 7.68046 15.4688 8.25 15.4688H18.5625C19.132 15.4688 19.5938 15.9305 19.5938 16.5C19.5938 17.0695 19.132 17.5312 18.5625 17.5312H8.25C7.68046 17.5312 7.21875 17.0695 7.21875 16.5Z" fill="#868A94"/>
<path d="M2.40625 11C2.40625 10.4305 2.86796 9.96875 3.4375 9.96875H4.8125C5.38204 9.96875 5.84375 10.4305 5.84375 11C5.84375 11.5695 5.38204 12.0312 4.8125 12.0312H3.4375C2.86796 12.0312 2.40625 11.5695 2.40625 11Z" fill="#868A94"/>
<path d="M3.4375 15.4688C2.86796 15.4688 2.40625 15.9305 2.40625 16.5C2.40625 17.0695 2.86796 17.5312 3.4375 17.5312H4.8125C5.38204 17.5312 5.84375 17.0695 5.84375 16.5C5.84375 15.9305 5.38204 15.4688 4.8125 15.4688H3.4375Z" fill="#868A94"/>
</svg>
