<svg width="24" height="24" viewBox="0 0 24 24" fill="none" xmlns="http://www.w3.org/2000/svg">
<path fill-rule="evenodd" clip-rule="evenodd" d="M14.0625 4.5C14.0625 3.56802 14.818 2.8125 15.75 2.8125H20.25C21.182 2.8125 21.9375 3.56802 21.9375 4.5V9C21.9375 9.93198 21.182 10.6875 20.25 10.6875H15.75C14.818 10.6875 14.0625 9.93198 14.0625 9V8.62499L13.4922 8.62498C13.4439 8.62478 13.3961 8.63414 13.3514 8.65252C13.3068 8.6709 13.2662 8.69793 13.2321 8.73207C13.198 8.7662 13.1709 8.80676 13.1525 8.85139C13.1342 8.89603 13.1248 8.94386 13.125 8.99214L13.125 9L13.125 15.0079C13.1248 15.0561 13.1342 15.104 13.1525 15.1486C13.1709 15.1932 13.198 15.2338 13.2321 15.2679C13.2662 15.3021 13.3068 15.3291 13.3514 15.3475C13.3961 15.3659 13.4439 15.3752 13.4922 15.375L13.5 15.375H14.0625V15C14.0625 14.068 14.818 13.3125 15.75 13.3125H20.25C21.182 13.3125 21.9375 14.068 21.9375 15V19.5C21.9375 20.432 21.182 21.1875 20.25 21.1875H15.75C14.818 21.1875 14.0625 20.432 14.0625 19.5V17.25H13.5C13.2042 17.2512 12.9111 17.1939 12.6375 17.0813C12.364 16.9686 12.1154 16.8029 11.9063 16.5938C11.6971 16.3846 11.5314 16.136 11.4188 15.8625C11.3061 15.589 11.2488 15.2958 11.25 15V12.9375C11.25 12.9375 11.25 12.9375 11.25 12.9375H8.4375V13.875C8.4375 14.807 7.68198 15.5625 6.75 15.5625H3C2.06802 15.5625 1.3125 14.807 1.3125 13.875V10.125C1.3125 9.19302 2.06802 8.4375 3 8.4375H6.75C7.68198 8.4375 8.4375 9.19302 8.4375 10.125V11.0625H11.25C11.25 11.0625 11.25 11.0625 11.25 11.0625L11.25 9C11.2488 8.70418 11.3061 8.41104 11.4188 8.13749C11.5314 7.86395 11.6971 7.61542 11.9063 7.40624C12.1154 7.19706 12.364 7.03138 12.6375 6.91874C12.9111 6.80611 13.2042 6.74876 13.5 6.75H14.0625V4.5ZM15.9375 4.6875V8.8125H20.0625V4.6875H15.9375ZM3.1875 10.3125V13.6875H6.5625V10.3125H3.1875ZM15.9375 19.3125V15.1875H20.0625V19.3125H15.9375Z" fill="#30333D"/>
</svg>
