<svg width="22" height="22" viewBox="0 0 22 22" fill="none" xmlns="http://www.w3.org/2000/svg">
<path d="M7.60372 3.39555C8.00644 3.79828 8.00644 4.45123 7.60372 4.85396L6.6144 5.84327H17.8746C18.4441 5.84327 18.9058 6.30498 18.9058 6.87452C18.9058 7.44407 18.4441 7.90577 17.8746 7.90577H6.61394L7.60372 8.89555C8.00644 9.29828 8.00644 9.95123 7.60372 10.354C7.20099 10.7567 6.54804 10.7567 6.14531 10.354L3.39531 7.60396C3.0746 7.28326 3.00929 6.80388 3.19935 6.41854C3.22171 6.37321 3.24761 6.32918 3.27703 6.28686C3.31529 6.23179 3.35878 6.18062 3.40678 6.13408L6.14531 3.39555C6.54804 2.99282 7.20099 2.99282 7.60372 3.39555Z" fill="#868A94"/>
<path d="M15.8538 11.6454C15.4511 11.2427 14.7982 11.2427 14.3954 11.6454C13.9927 12.0481 13.9927 12.7011 14.3954 13.1038L15.3847 14.093H4.1246C3.55506 14.093 3.09335 14.5547 3.09335 15.1243C3.09335 15.6938 3.55506 16.1555 4.1246 16.1555H15.3853L14.3954 17.1454C13.9927 17.5481 13.9927 18.2011 14.3954 18.6038C14.7982 19.0065 15.4511 19.0065 15.8538 18.6038L18.6038 15.8538C18.8215 15.6361 18.9216 15.3453 18.9039 15.0604C18.8876 14.7939 18.7701 14.5547 18.5893 14.3808L15.8538 11.6454Z" fill="#868A94"/>
</svg>
