<svg width="22" height="22" viewBox="0 0 22 22" fill="none" xmlns="http://www.w3.org/2000/svg">
<path d="M10.6116 12.7689C11.1811 12.7689 11.6428 13.2306 11.6428 13.8001C11.6428 14.3697 11.1811 14.8314 10.6116 14.8314H9.23657C8.66703 14.8314 8.20532 14.3697 8.20532 13.8001C8.20532 13.2306 8.66703 12.7689 9.23657 12.7689H10.6116Z" fill="#868A94"/>
<path d="M16.7991 12.7689C17.3686 12.7689 17.8303 13.2306 17.8303 13.8001C17.8303 14.3697 17.3686 14.8314 16.7991 14.8314H14.0491C13.4795 14.8314 13.0178 14.3697 13.0178 13.8001C13.0178 13.2306 13.4795 12.7689 14.0491 12.7689H16.7991Z" fill="#868A94"/>
<path fill-rule="evenodd" clip-rule="evenodd" d="M19.2053 3.48761C20.1546 3.48761 20.9241 4.25712 20.9241 5.20636V16.2064C20.9241 17.1556 20.1546 17.9251 19.2053 17.9251H2.70532C1.75608 17.9251 0.986572 17.1556 0.986572 16.2064V5.20636C0.986572 4.25712 1.75608 3.48761 2.70532 3.48761H19.2053ZM3.04907 9.06482V15.8626H18.8616V9.06482H3.04907ZM3.04907 7.00232H18.8616V5.55011H3.04907V7.00232Z" fill="#868A94"/>
</svg>
