<svg width="22" height="22" viewBox="0 0 22 22" fill="none" xmlns="http://www.w3.org/2000/svg">
<path fill-rule="evenodd" clip-rule="evenodd" d="M11.0001 6.18751C8.34218 6.18751 6.18755 8.34214 6.18755 11C6.18755 13.6579 8.34218 15.8125 11.0001 15.8125C13.6579 15.8125 15.8126 13.6579 15.8126 11C15.8126 8.34214 13.6579 6.18751 11.0001 6.18751ZM8.25005 11C8.25005 9.48123 9.48127 8.25001 11.0001 8.25001C12.5188 8.25001 13.7501 9.48123 13.7501 11C13.7501 12.5188 12.5188 13.75 11.0001 13.75C9.48127 13.75 8.25005 12.5188 8.25005 11Z" fill="#868A94"/>
<path fill-rule="evenodd" clip-rule="evenodd" d="M8.79775 1.59936C8.54254 1.44623 8.23362 1.41083 7.95038 1.50226C6.59576 1.93955 5.3505 2.66186 4.29837 3.62062C4.07945 3.82011 3.95687 4.10409 3.96186 4.40022L3.99944 6.63238C3.89822 6.79284 3.80325 6.95715 3.71474 7.12496L1.76051 8.2073C1.50103 8.35101 1.31599 8.5995 1.25267 8.88929C0.948378 10.2819 0.951656 11.7242 1.26228 13.1154C1.32643 13.4027 1.51032 13.6489 1.76763 13.792L3.71456 14.8744C3.8035 15.0436 3.89855 15.2094 3.9995 15.3717L3.96186 17.5998C3.95686 17.896 4.07943 18.18 4.29834 18.3795C5.35315 19.3407 6.60428 20.0613 7.96511 20.4912C8.24637 20.5801 8.55222 20.5442 8.80532 20.3928L10.7189 19.2476C10.906 19.2537 11.0933 19.2537 11.2804 19.2476L13.2022 20.4007C13.4574 20.5539 13.7664 20.5893 14.0496 20.4978C15.4042 20.0606 16.6495 19.3382 17.7016 18.3795C17.9205 18.18 18.0431 17.896 18.0381 17.5999L18.0005 15.3677C18.1018 15.2073 18.1967 15.0429 18.2853 14.8751L20.2395 13.7928C20.499 13.6491 20.684 13.4006 20.7473 13.1108C21.0516 11.7182 21.0483 10.2759 20.7377 8.88471C20.6736 8.59738 20.4897 8.35117 20.2324 8.20812L18.2857 7.1258C18.1971 6.95771 18.1019 6.79311 18.0005 6.63238L18.0381 4.40022C18.0431 4.1041 17.9205 3.82013 17.7016 3.62065C16.6468 2.65937 15.3957 1.93883 14.0349 1.5089C13.7536 1.42004 13.4478 1.45587 13.1947 1.60734L11.2811 2.75248C11.094 2.74638 10.9067 2.74637 10.7196 2.75246L8.79775 1.59936ZM6.06704 6.91785L6.0322 4.84873C6.67091 4.33065 7.38656 3.91538 8.15329 3.61794L9.92801 4.68278C10.1098 4.79184 10.3207 4.84224 10.5322 4.82711C10.8437 4.80483 11.1563 4.80483 11.4678 4.82711C11.6788 4.84221 11.8894 4.79203 12.0709 4.68339L13.8407 3.62432C14.61 3.9175 15.328 4.33087 15.9678 4.84896L15.933 6.91785C15.9293 7.13497 15.9943 7.3477 16.1186 7.52573C16.2918 7.77364 16.4434 8.03593 16.5718 8.30972C16.6637 8.50582 16.8151 8.66799 17.0043 8.77324L18.8102 9.77728C18.942 10.5871 18.9441 11.4128 18.8164 12.2233L17.0058 13.226C16.8159 13.3313 16.6639 13.4938 16.5718 13.6904C16.4434 13.9642 16.2918 14.2265 16.1186 14.4744C15.9943 14.6524 15.9293 14.8651 15.933 15.0823L15.9678 17.1514C15.3291 17.6695 14.6134 18.0847 13.8467 18.3822L12.072 17.3173C11.8902 17.2083 11.6793 17.1579 11.4678 17.173C11.1563 17.1953 10.8437 17.1953 10.5322 17.173C10.3211 17.1579 10.1106 17.2081 9.92904 17.3167L8.15927 18.3758C7.38998 18.0826 6.67203 17.6693 6.03223 17.1512L6.06703 15.0909C6.07064 14.8774 6.00789 14.6681 5.88745 14.4918C5.71302 14.2364 5.55911 13.9677 5.42715 13.6881C5.33509 13.493 5.18417 13.3317 4.99564 13.2269L3.18976 12.2228C3.05798 11.413 3.05591 10.5873 3.18361 9.77683L4.99417 8.77406C5.18414 8.66884 5.33604 8.50634 5.42824 8.30972C5.55661 8.03593 5.70821 7.77364 5.88137 7.52573C6.00571 7.3477 6.07069 7.13497 6.06704 6.91785Z" fill="#868A94"/>
</svg>
