<svg width="22" height="22" viewBox="0 0 22 22" fill="none" xmlns="http://www.w3.org/2000/svg">
<path fill-rule="evenodd" clip-rule="evenodd" d="M16.4583 2.60567C16.861 2.20294 17.514 2.20294 17.9167 2.60567L21.3542 6.04317C21.7569 6.44589 21.7569 7.09885 21.3542 7.50157L17.9167 10.9391C17.514 11.3418 16.861 11.3418 16.4583 10.9391C16.0556 10.5363 16.0556 9.88339 16.4583 9.48067L18.1353 7.80362H15.125C14.3045 7.80362 13.5176 8.12957 12.9374 8.70976C12.3572 9.28995 12.0312 10.0769 12.0312 10.8974C12.0312 12.2649 11.488 13.5764 10.521 14.5434C9.59831 15.4661 8.36189 16.003 7.06245 16.0502C6.62547 17.4466 5.32169 18.4599 3.78125 18.4599C1.88277 18.4599 0.34375 16.9208 0.34375 15.0224C0.34375 13.1239 1.88277 11.5849 3.78125 11.5849C5.31841 11.5849 6.61992 12.5938 7.05964 13.9856C7.81281 13.9406 8.52609 13.6215 9.06261 13.085C9.6428 12.5048 9.96875 11.7179 9.96875 10.8974C9.96875 9.52985 10.512 8.21833 11.479 7.25135C12.446 6.28437 13.7575 5.74112 15.125 5.74112H18.1353L16.4583 4.06407C16.0556 3.66135 16.0556 3.00839 16.4583 2.60567ZM5.15625 15.0224C5.15625 14.263 4.54064 13.6474 3.78125 13.6474C3.02186 13.6474 2.40625 14.263 2.40625 15.0224C2.40625 15.7818 3.02186 16.3974 3.78125 16.3974C4.54064 16.3974 5.15625 15.7818 5.15625 15.0224Z" fill="#868A94"/>
</svg>
