<svg width="16" height="16" viewBox="0 0 16 16" fill="none" xmlns="http://www.w3.org/2000/svg">
<path d="M12.5 2.25C12.5 1.83579 12.8358 1.5 13.25 1.5C13.6642 1.5 14 1.83579 14 2.25V13.25C14 13.6642 13.6642 14 13.25 14C12.8358 14 12.5 13.6642 12.5 13.25V2.25Z" fill="#868A94"/>
<path d="M1 7.75C1 7.33579 1.33579 7 1.75 7L8.93945 7L5.71973 3.78027C5.42683 3.48738 5.42683 3.01262 5.71973 2.71973C6.01262 2.42683 6.48738 2.42683 6.78027 2.71973L11.2803 7.21973C11.3056 7.24505 11.3277 7.27249 11.3486 7.30029C11.3574 7.312 11.3669 7.32323 11.375 7.33545C11.3784 7.3405 11.3811 7.34596 11.3843 7.35107C11.3943 7.36698 11.4038 7.38322 11.4126 7.3999C11.4178 7.40972 11.4225 7.4197 11.4272 7.42969C11.4321 7.43988 11.437 7.45001 11.4414 7.46045C11.4476 7.47523 11.4528 7.4903 11.458 7.50537C11.4611 7.51431 11.4645 7.52313 11.4673 7.53223C11.4704 7.54241 11.4729 7.5527 11.4756 7.56299C11.4792 7.57687 11.4826 7.5908 11.4854 7.60498C11.4877 7.61679 11.489 7.62873 11.4907 7.64062C11.4924 7.65231 11.4949 7.66392 11.4961 7.67578C11.501 7.72531 11.501 7.77518 11.4961 7.82471C11.4949 7.83656 11.4924 7.84818 11.4907 7.85986C11.489 7.87175 11.4877 7.8837 11.4854 7.89551C11.4826 7.90968 11.4792 7.92362 11.4756 7.9375C11.4729 7.94778 11.4704 7.95808 11.4673 7.96826C11.4645 7.97735 11.4611 7.98618 11.458 7.99512C11.4528 8.01019 11.4476 8.02526 11.4414 8.04004C11.437 8.05047 11.4321 8.06061 11.4272 8.0708C11.4225 8.08079 11.4178 8.09077 11.4126 8.10059C11.4038 8.11726 11.3943 8.13352 11.3843 8.14941C11.3811 8.15453 11.3784 8.15999 11.375 8.16504C11.3669 8.17725 11.3574 8.1885 11.3486 8.2002C11.3278 8.22789 11.3055 8.25505 11.2803 8.28027L6.78027 12.7803C6.48738 13.0732 6.01262 13.0732 5.71973 12.7803C5.42683 12.4874 5.42683 12.0126 5.71973 11.7197L8.93945 8.5L1.75 8.5C1.33579 8.5 1 8.16421 1 7.75Z" fill="#868A94"/>
</svg>
