<svg width="22" height="22" viewBox="0 0 22 22" fill="none" xmlns="http://www.w3.org/2000/svg">
<path fill-rule="evenodd" clip-rule="evenodd" d="M16.1945 5.84375C16.4126 5.41358 16.5294 4.93428 16.5294 4.44295C16.5294 3.62149 16.203 2.83368 15.6222 2.25281C15.0413 1.67195 14.2535 1.34563 13.432 1.34563C12.6106 1.34563 11.8228 1.67195 11.2419 2.25281L11.2387 2.25603C11.152 2.34347 11.0727 2.43688 11 2.53432C10.9273 2.43688 10.848 2.34347 10.7613 2.25603L10.7581 2.25281C10.1772 1.67195 9.38942 1.34563 8.56795 1.34563C7.74649 1.34563 6.95867 1.67195 6.37781 2.25281C5.79695 2.83368 5.47063 3.62149 5.47063 4.44295C5.47063 4.93428 5.58737 5.41358 5.80549 5.84375H3.4375C2.48826 5.84375 1.71875 6.61326 1.71875 7.5625V10.3125C1.71875 11.144 2.30923 11.8376 3.09375 11.9969V17.1875C3.09375 17.6433 3.27483 18.0805 3.59716 18.4028C3.91949 18.7252 4.35666 18.9063 4.8125 18.9063H17.1875C17.6433 18.9063 18.0805 18.7252 18.4028 18.4028C18.7252 18.0805 18.9063 17.6433 18.9063 17.1875V11.9969C19.6908 11.8376 20.2813 11.144 20.2813 10.3125V7.5625C20.2813 6.61326 19.5117 5.84375 18.5625 5.84375H16.1945ZM12.7022 3.70937C12.6224 3.79058 12.5037 3.98175 12.3883 4.32885C12.2781 4.66043 12.1981 5.0507 12.1423 5.44154C12.1261 5.55525 12.1122 5.6669 12.1003 5.77466C12.2081 5.76279 12.3197 5.74891 12.4334 5.73269C12.8243 5.67692 13.2146 5.59689 13.5461 5.48669C13.8932 5.37134 14.0844 5.25256 14.1656 5.17285C14.3585 4.97896 14.4669 4.71654 14.4669 4.44295C14.4669 4.1685 14.3578 3.90529 14.1638 3.71122C13.9697 3.51715 13.7065 3.40813 13.432 3.40813C13.1585 3.40813 12.896 3.51646 12.7022 3.70937ZM3.78125 7.90625V9.96875H9.96875V7.90625H3.78125ZM12.0313 7.90625V9.96875H18.2188V7.90625H12.0313ZM9.96875 12.0313H5.15625V16.8438H9.96875V12.0313ZM12.0313 16.8438V12.0313H16.8438V16.8438H12.0313ZM8.45385 5.48669C8.10676 5.37133 7.91559 5.25255 7.83438 5.17284C7.64146 4.97895 7.53313 4.71654 7.53313 4.44295C7.53313 4.1685 7.64215 3.90529 7.83622 3.71122C8.03029 3.51715 8.2935 3.40813 8.56795 3.40813C8.84154 3.40813 9.10395 3.51646 9.29784 3.70938C9.37755 3.7906 9.49634 3.98176 9.61169 4.32885C9.72189 4.66043 9.80192 5.0507 9.85769 5.44154C9.87391 5.55525 9.88779 5.6669 9.89966 5.77466C9.7919 5.76279 9.68025 5.74891 9.56654 5.73269C9.1757 5.67692 8.78543 5.59689 8.45385 5.48669Z" fill="#545863"/>
</svg>
