<svg width="22" height="22" viewBox="0 0 22 22" fill="none" xmlns="http://www.w3.org/2000/svg">
<path d="M11 16.5C11.7594 16.5 12.375 15.8844 12.375 15.125C12.375 14.3656 11.7594 13.75 11 13.75C10.2406 13.75 9.625 14.3656 9.625 15.125C9.625 15.8844 10.2406 16.5 11 16.5Z" fill="#545863"/>
<path d="M11.6706 5.9098C11.0038 5.77717 10.3126 5.84524 9.68453 6.10542C9.05641 6.36559 8.51954 6.80619 8.14182 7.37148C7.76411 7.93677 7.5625 8.60138 7.5625 9.28125C7.5625 9.8508 8.02421 10.3125 8.59375 10.3125C9.16329 10.3125 9.625 9.8508 9.625 9.28125C9.625 9.0093 9.70564 8.74346 9.85673 8.51734C10.0078 8.29123 10.2226 8.11499 10.4738 8.01092C10.7251 7.90685 11.0015 7.87962 11.2682 7.93267C11.535 7.98573 11.78 8.11668 11.9723 8.30898C12.1646 8.50128 12.2955 8.74628 12.3486 9.013C12.4016 9.27973 12.3744 9.55619 12.2703 9.80744C12.1663 10.0587 11.99 10.2734 11.7639 10.4245C11.5378 10.5756 11.2719 10.6563 11 10.6563C10.4305 10.6563 9.96875 11.118 9.96875 11.6875C9.96875 12.257 10.4305 12.7188 11 12.7188C11.6799 12.7188 12.3445 12.5171 12.9098 12.1394C13.4751 11.7617 13.9157 11.2248 14.1758 10.5967C14.436 9.96861 14.5041 9.27744 14.3715 8.61063C14.2388 7.94382 13.9114 7.33132 13.4307 6.85057C12.9499 6.36983 12.3374 6.04244 11.6706 5.9098Z" fill="#545863"/>
<path fill-rule="evenodd" clip-rule="evenodd" d="M1.71875 11C1.71875 5.87411 5.87411 1.71875 11 1.71875C16.1259 1.71875 20.2813 5.87411 20.2813 11C20.2813 16.1259 16.1259 20.2813 11 20.2813C5.87411 20.2813 1.71875 16.1259 1.71875 11ZM11 3.78125C7.0132 3.78125 3.78125 7.0132 3.78125 11C3.78125 14.9868 7.0132 18.2188 11 18.2188C14.9868 18.2188 18.2188 14.9868 18.2188 11C18.2188 7.0132 14.9868 3.78125 11 3.78125Z" fill="#545863"/>
</svg>
