<svg width="16" height="16" viewBox="0 0 16 16" fill="none" xmlns="http://www.w3.org/2000/svg">
<path d="M14.3837 1.61625C14.2266 1.45911 14.0304 1.34669 13.8154 1.29055C13.6005 1.23441 13.3744 1.2366 13.1605 1.29688L13.1468 1.30125L1.15241 4.9375C0.909147 5.00806 0.693061 5.15085 0.53277 5.34696C0.372478 5.54307 0.275545 5.78325 0.254808 6.03568C0.234071 6.28812 0.290509 6.5409 0.416648 6.76054C0.542786 6.98018 0.732673 7.15632 0.961156 7.26563L6.18741 9.8125L8.73178 15.0406C8.83212 15.254 8.99129 15.4343 9.19058 15.5603C9.38987 15.6863 9.621 15.7527 9.85678 15.7519C9.89241 15.7519 9.92866 15.7519 9.96491 15.7475C10.218 15.728 10.459 15.6312 10.6553 15.4703C10.8516 15.3093 10.9937 15.0919 11.0624 14.8475L14.6987 2.85313C14.7005 2.84867 14.7019 2.84407 14.703 2.83938C14.7633 2.62551 14.7655 2.39945 14.7094 2.18447C14.6532 1.96948 14.5408 1.77334 14.3837 1.61625ZM9.80678 13.8169L7.65866 9.40188L10.5337 6.53C10.6034 6.46024 10.6588 6.37741 10.6965 6.28626C10.7343 6.19511 10.7537 6.09741 10.7537 5.99875C10.7537 5.90009 10.7343 5.80239 10.6965 5.71124C10.6588 5.62009 10.6034 5.53727 10.5337 5.4675C10.4639 5.39774 10.3811 5.3424 10.2899 5.30464C10.1988 5.26688 10.1011 5.24745 10.0024 5.24745C9.90374 5.24745 9.80605 5.26688 9.7149 5.30464C9.62374 5.3424 9.54092 5.39774 9.47116 5.4675L6.59616 8.3425L2.18303 6.19313L13.1249 2.875L9.80678 13.8169Z" fill="#545863"/>
</svg>
