<svg width="22" height="22" viewBox="0 0 22 22" fill="none" xmlns="http://www.w3.org/2000/svg">
<path fill-rule="evenodd" clip-rule="evenodd" d="M9.96875 1.71875C5.4124 1.71875 1.71875 5.4124 1.71875 9.96875C1.71875 14.5251 5.4124 18.2188 9.96875 18.2188C11.8752 18.2188 13.6307 17.5721 15.0277 16.4861L18.5208 19.9792C18.9236 20.3819 19.5765 20.3819 19.9792 19.9792C20.382 19.5765 20.382 18.9235 19.9792 18.5208L16.4861 15.0277C17.5721 13.6307 18.2188 11.8752 18.2188 9.96875C18.2188 5.4124 14.5251 1.71875 9.96875 1.71875ZM3.78125 9.96875C3.78125 6.55149 6.55149 3.78125 9.96875 3.78125C13.386 3.78125 16.1563 6.55149 16.1563 9.96875C16.1563 13.386 13.386 16.1563 9.96875 16.1563C6.55149 16.1563 3.78125 13.386 3.78125 9.96875Z" fill="#545863"/>
</svg>
